# xmcd
#
# Track frame offsets: 
#        150
#        35849
#        54677
#        71500
#        85588
#        109340
#        123399
#        164816
#        183734
#        201676
#        217402
#        249535
#
# Disc length: 3493 seconds
#
# Revision: 0
# Processed by: cddbd v1.5.2PL0 Copyright (c) Steve Scherf et al.
# Submitted via: ExactAudioCopy v1.0b6
#
DISCID=c80da30c
DTITLE=André Rieu - Icon (2013)
DYEAR=2013
DGENRE=Classical Crossover
TTITLE0=The Beautiful Blue Danube
TTITLE1=What A Wonderful World
TTITLE2=Strauss and Co. (Medley)
TTITLE3=Radetzky March
TTITLE4=Voices Of Spring
TTITLE5=Edelweiss
TTITLE6=When The Saints Go Marching In
TTITLE7=Vienna, Vienna Just You
TTITLE8=Send In The Clowns
TTITLE9=You Are My Heart's Delight
TTITLE10=Emperor Waltz
TTITLE11=Amazing Grace
EXTD=
EXTT0=
EXTT1=
EXTT2=
EXTT3=
EXTT4=
EXTT5=
EXTT6=
EXTT7=
EXTT8=
EXTT9=
EXTT10=
EXTT11=
PLAYORDER=
